# xmcd CD database file
#
# Track frame offsets:
#	150
#	34758
#	67228
#	95948
#
# Disc length: 1687 seconds
#
# Revision: 0
# Processed by: cddbd v1.5.2PL0 Copyright (c) Steve Scherf et al.
# Submitted via: CDex 1.51
#
DISCID=39069504
DTITLE=Aart van Bergen Sextet - Storm City Tales
DYEAR=2009
DGENRE=Jazz
TTITLE0=Don't Want To Say Goodbye
TTITLE1=Storm City Blues
TTITLE2=Will I Ever Hold You Again?
TTITLE3=Fresh Air
EXTD=YEAR: 2009
EXTT0=
EXTT1=
EXTT2=
EXTT3=
PLAYORDER=
